<mxfile host="65bd71144e">
    <diagram id="1aq4pFxE-79YsVzyA_UG" name="PÃ¡gina-1">
        <mxGraphModel dx="1109" dy="634" grid="1" gridSize="10" guides="1" tooltips="1" connect="1" arrows="1" fold="1" page="1" pageScale="1" pageWidth="827" pageHeight="1169" math="0" shadow="0">
            <root>
                <mxCell id="0"/>
                <mxCell id="1" parent="0"/>
                <mxCell id="2" value="Customer" style="swimlane;fontStyle=0;childLayout=stackLayout;horizontal=1;startSize=26;fillColor=none;horizontalStack=0;resizeParent=1;resizeParentMax=0;resizeLast=0;collapsible=1;marginBottom=0;" vertex="1" parent="1">
                    <mxGeometry x="40" y="40" width="140" height="156" as="geometry"/>
                </mxCell>
                <mxCell id="3" value="_id: ObjectId" style="text;strokeColor=none;fillColor=none;align=left;verticalAlign=top;spacingLeft=4;spacingRight=4;overflow=hidden;rotatable=0;points=[[0,0.5],[1,0.5]];portConstraint=eastwest;" vertex="1" parent="2">
                    <mxGeometry y="26" width="140" height="26" as="geometry"/>
                </mxCell>
                <mxCell id="4" value="name: String" style="text;strokeColor=none;fillColor=none;align=left;verticalAlign=top;spacingLeft=4;spacingRight=4;overflow=hidden;rotatable=0;points=[[0,0.5],[1,0.5]];portConstraint=eastwest;" vertex="1" parent="2">
                    <mxGeometry y="52" width="140" height="26" as="geometry"/>
                </mxCell>
                <mxCell id="5" value="phone: String" style="text;strokeColor=none;fillColor=none;align=left;verticalAlign=top;spacingLeft=4;spacingRight=4;overflow=hidden;rotatable=0;points=[[0,0.5],[1,0.5]];portConstraint=eastwest;" vertex="1" parent="2">
                    <mxGeometry y="78" width="140" height="26" as="geometry"/>
                </mxCell>
                <mxCell id="6" value="id_document: String" style="text;strokeColor=none;fillColor=none;align=left;verticalAlign=top;spacingLeft=4;spacingRight=4;overflow=hidden;rotatable=0;points=[[0,0.5],[1,0.5]];portConstraint=eastwest;" vertex="1" parent="2">
                    <mxGeometry y="104" width="140" height="26" as="geometry"/>
                </mxCell>
                <mxCell id="7" value="address: String" style="text;strokeColor=none;fillColor=none;align=left;verticalAlign=top;spacingLeft=4;spacingRight=4;overflow=hidden;rotatable=0;points=[[0,0.5],[1,0.5]];portConstraint=eastwest;" vertex="1" parent="2">
                    <mxGeometry y="130" width="140" height="26" as="geometry"/>
                </mxCell>
                <mxCell id="8" value="Sale" style="swimlane;fontStyle=0;childLayout=stackLayout;horizontal=1;startSize=26;fillColor=none;horizontalStack=0;resizeParent=1;resizeParentMax=0;resizeLast=0;collapsible=1;marginBottom=0;" vertex="1" parent="1">
                    <mxGeometry x="280" y="40" width="140" height="130" as="geometry"/>
                </mxCell>
                <mxCell id="9" value="_id: ObjectId" style="text;strokeColor=none;fillColor=none;align=left;verticalAlign=top;spacingLeft=4;spacingRight=4;overflow=hidden;rotatable=0;points=[[0,0.5],[1,0.5]];portConstraint=eastwest;" vertex="1" parent="8">
                    <mxGeometry y="26" width="140" height="26" as="geometry"/>
                </mxCell>
                <mxCell id="10" value="datetime: DateTime" style="text;strokeColor=none;fillColor=none;align=left;verticalAlign=top;spacingLeft=4;spacingRight=4;overflow=hidden;rotatable=0;points=[[0,0.5],[1,0.5]];portConstraint=eastwest;" vertex="1" parent="8">
                    <mxGeometry y="52" width="140" height="26" as="geometry"/>
                </mxCell>
                <mxCell id="11" value="numer: Number" style="text;strokeColor=none;fillColor=none;align=left;verticalAlign=top;spacingLeft=4;spacingRight=4;overflow=hidden;rotatable=0;points=[[0,0.5],[1,0.5]];portConstraint=eastwest;" vertex="1" parent="8">
                    <mxGeometry y="78" width="140" height="26" as="geometry"/>
                </mxCell>
                <mxCell id="81" value="customer_id: ObjectId" style="text;strokeColor=none;fillColor=none;align=left;verticalAlign=top;spacingLeft=4;spacingRight=4;overflow=hidden;rotatable=0;points=[[0,0.5],[1,0.5]];portConstraint=eastwest;" vertex="1" parent="8">
                    <mxGeometry y="104" width="140" height="26" as="geometry"/>
                </mxCell>
                <mxCell id="13" value="n" style="endArrow=open;html=1;endSize=12;startArrow=diamondThin;startSize=14;startFill=1;edgeStyle=orthogonalEdgeStyle;align=left;verticalAlign=bottom;exitX=-0.004;exitY=0.142;exitDx=0;exitDy=0;exitPerimeter=0;" edge="1" parent="1" source="8">
                    <mxGeometry x="-0.8146" y="-5" relative="1" as="geometry">
                        <mxPoint x="340" y="55" as="sourcePoint"/>
                        <mxPoint x="180" y="55" as="targetPoint"/>
                        <mxPoint as="offset"/>
                    </mxGeometry>
                </mxCell>
                <mxCell id="14" value="Product" style="swimlane;fontStyle=0;childLayout=stackLayout;horizontal=1;startSize=26;fillColor=none;horizontalStack=0;resizeParent=1;resizeParentMax=0;resizeLast=0;collapsible=1;marginBottom=0;" vertex="1" parent="1">
                    <mxGeometry x="520" y="240" width="140" height="156" as="geometry"/>
                </mxCell>
                <mxCell id="15" value="_id: ObjectId" style="text;strokeColor=none;fillColor=none;align=left;verticalAlign=top;spacingLeft=4;spacingRight=4;overflow=hidden;rotatable=0;points=[[0,0.5],[1,0.5]];portConstraint=eastwest;" vertex="1" parent="14">
                    <mxGeometry y="26" width="140" height="26" as="geometry"/>
                </mxCell>
                <mxCell id="16" value="description: String" style="text;strokeColor=none;fillColor=none;align=left;verticalAlign=top;spacingLeft=4;spacingRight=4;overflow=hidden;rotatable=0;points=[[0,0.5],[1,0.5]];portConstraint=eastwest;" vertex="1" parent="14">
                    <mxGeometry y="52" width="140" height="26" as="geometry"/>
                </mxCell>
                <mxCell id="17" value="unit: String" style="text;strokeColor=none;fillColor=none;align=left;verticalAlign=top;spacingLeft=4;spacingRight=4;overflow=hidden;rotatable=0;points=[[0,0.5],[1,0.5]];portConstraint=eastwest;" vertex="1" parent="14">
                    <mxGeometry y="78" width="140" height="26" as="geometry"/>
                </mxCell>
                <mxCell id="18" value="prince: Number" style="text;strokeColor=none;fillColor=none;align=left;verticalAlign=top;spacingLeft=4;spacingRight=4;overflow=hidden;rotatable=0;points=[[0,0.5],[1,0.5]];portConstraint=eastwest;" vertex="1" parent="14">
                    <mxGeometry y="104" width="140" height="26" as="geometry"/>
                </mxCell>
                <mxCell id="67" value="supplier_id: ObjectId" style="text;strokeColor=none;fillColor=none;align=left;verticalAlign=top;spacingLeft=4;spacingRight=4;overflow=hidden;rotatable=0;points=[[0,0.5],[1,0.5]];portConstraint=eastwest;" vertex="1" parent="14">
                    <mxGeometry y="130" width="140" height="26" as="geometry"/>
                </mxCell>
                <mxCell id="19" value="SaleItem" style="swimlane;fontStyle=0;childLayout=stackLayout;horizontal=1;startSize=26;fillColor=none;horizontalStack=0;resizeParent=1;resizeParentMax=0;resizeLast=0;collapsible=1;marginBottom=0;" vertex="1" parent="1">
                    <mxGeometry x="280" y="240" width="140" height="104" as="geometry"/>
                </mxCell>
                <mxCell id="21" value="order: Number" style="text;strokeColor=none;fillColor=none;align=left;verticalAlign=top;spacingLeft=4;spacingRight=4;overflow=hidden;rotatable=0;points=[[0,0.5],[1,0.5]];portConstraint=eastwest;" vertex="1" parent="19">
                    <mxGeometry y="26" width="140" height="26" as="geometry"/>
                </mxCell>
                <mxCell id="58" value="quantity: Number" style="text;strokeColor=none;fillColor=none;align=left;verticalAlign=top;spacingLeft=4;spacingRight=4;overflow=hidden;rotatable=0;points=[[0,0.5],[1,0.5]];portConstraint=eastwest;" vertex="1" parent="19">
                    <mxGeometry y="52" width="140" height="26" as="geometry"/>
                </mxCell>
                <mxCell id="22" value="product_id: ObjectId" style="text;strokeColor=none;fillColor=none;align=left;verticalAlign=top;spacingLeft=4;spacingRight=4;overflow=hidden;rotatable=0;points=[[0,0.5],[1,0.5]];portConstraint=eastwest;" vertex="1" parent="19">
                    <mxGeometry y="78" width="140" height="26" as="geometry"/>
                </mxCell>
                <mxCell id="25" value="n" style="endArrow=open;html=1;endSize=12;startArrow=diamondThin;startSize=14;startFill=1;edgeStyle=orthogonalEdgeStyle;align=left;verticalAlign=bottom;" edge="1" parent="1">
                    <mxGeometry x="-0.7938" y="-20" relative="1" as="geometry">
                        <mxPoint x="350" y="241" as="sourcePoint"/>
                        <mxPoint x="350" y="170" as="targetPoint"/>
                        <Array as="points">
                            <mxPoint x="350" y="191"/>
                            <mxPoint x="350" y="191"/>
                        </Array>
                        <mxPoint as="offset"/>
                    </mxGeometry>
                </mxCell>
                <mxCell id="26" value="n" style="endArrow=open;html=1;endSize=12;startArrow=diamondThin;startSize=14;startFill=1;edgeStyle=orthogonalEdgeStyle;align=left;verticalAlign=bottom;" edge="1" parent="1">
                    <mxGeometry x="-0.8333" y="10" relative="1" as="geometry">
                        <mxPoint x="420" y="250" as="sourcePoint"/>
                        <mxPoint x="520" y="260" as="targetPoint"/>
                        <Array as="points">
                            <mxPoint x="420" y="260"/>
                        </Array>
                        <mxPoint as="offset"/>
                    </mxGeometry>
                </mxCell>
                <mxCell id="27" value="Supplier" style="swimlane;fontStyle=0;childLayout=stackLayout;horizontal=1;startSize=26;fillColor=none;horizontalStack=0;resizeParent=1;resizeParentMax=0;resizeLast=0;collapsible=1;marginBottom=0;" vertex="1" parent="1">
                    <mxGeometry x="520" y="40" width="140" height="156" as="geometry"/>
                </mxCell>
                <mxCell id="28" value="_id: ObjectId" style="text;strokeColor=none;fillColor=none;align=left;verticalAlign=top;spacingLeft=4;spacingRight=4;overflow=hidden;rotatable=0;points=[[0,0.5],[1,0.5]];portConstraint=eastwest;" vertex="1" parent="27">
                    <mxGeometry y="26" width="140" height="26" as="geometry"/>
                </mxCell>
                <mxCell id="29" value="name: String" style="text;strokeColor=none;fillColor=none;align=left;verticalAlign=top;spacingLeft=4;spacingRight=4;overflow=hidden;rotatable=0;points=[[0,0.5],[1,0.5]];portConstraint=eastwest;" vertex="1" parent="27">
                    <mxGeometry y="52" width="140" height="26" as="geometry"/>
                </mxCell>
                <mxCell id="30" value="address: String" style="text;strokeColor=none;fillColor=none;align=left;verticalAlign=top;spacingLeft=4;spacingRight=4;overflow=hidden;rotatable=0;points=[[0,0.5],[1,0.5]];portConstraint=eastwest;" vertex="1" parent="27">
                    <mxGeometry y="78" width="140" height="26" as="geometry"/>
                </mxCell>
                <mxCell id="31" value="phone: String" style="text;strokeColor=none;fillColor=none;align=left;verticalAlign=top;spacingLeft=4;spacingRight=4;overflow=hidden;rotatable=0;points=[[0,0.5],[1,0.5]];portConstraint=eastwest;" vertex="1" parent="27">
                    <mxGeometry y="104" width="140" height="26" as="geometry"/>
                </mxCell>
                <mxCell id="32" value="country: String" style="text;strokeColor=none;fillColor=none;align=left;verticalAlign=top;spacingLeft=4;spacingRight=4;overflow=hidden;rotatable=0;points=[[0,0.5],[1,0.5]];portConstraint=eastwest;" vertex="1" parent="27">
                    <mxGeometry y="130" width="140" height="26" as="geometry"/>
                </mxCell>
                <mxCell id="35" value="n" style="endArrow=open;html=1;endSize=12;startArrow=diamondThin;startSize=14;startFill=1;edgeStyle=orthogonalEdgeStyle;align=left;verticalAlign=bottom;" edge="1" parent="1">
                    <mxGeometry x="-0.7938" y="-20" relative="1" as="geometry">
                        <mxPoint x="589.5" y="246" as="sourcePoint"/>
                        <mxPoint x="589.5" y="196" as="targetPoint"/>
                        <Array as="points">
                            <mxPoint x="589" y="198.99"/>
                            <mxPoint x="589" y="198.99"/>
                        </Array>
                        <mxPoint as="offset"/>
                    </mxGeometry>
                </mxCell>
                <mxCell id="39" value="" style="shape=stencil(lZ3ZshzHjYafhrcVuS/XXt5DEaJMhjWigqI947c3chhV3f2j+kvqjucQqJOVhcTyY8kP+S9/fPrp948fUvjj29cv//z4v59//vbpQ/7rh5Q+//bp49fP3+xfH/LfPuS//PLl68d/fP3yr99+/v7z7z8tyvWv//ny7/WE//vOF8cR5+JK4T/ff5OP2P7/F3//Tv/r59+e6fsxlL5GpC9R6EcF+nbM1+eXI9Lz21GUviSgr8esQt8H0uf2Ql95f67HPegr0yd9/sxAn4/eX+jbkWl/8pGD0HeiT8dML/Sd9z8dNQt9pe+bjqjPn7T/8eiv6x9Hof2J+r7jFNh7+qDyPI/M9DUI/aT3Dfq+6wkgoPPo5ZU+nk94Qy/na+0YfLB5fs6LPqEA2fYFpScBtc/zKp8mgRU+8DiSPN9ORHlP31U+jZ7W048m71uPBgeyn7tx0TcUiH4EWQ8fmKbnd2lU2B+n30xjNxC4diRZ/8QDc6mbkz6ZxHaib0PpSaFXXX+K52/e0GdZTzoC0seh9B3fN8jzTUPC+5p0vX4v+00A+TH6ovRkYIz+9Xstg4HrGa/2YkkI7L/Rv8rnknDYz6LyaSeU96fL8+eGvr0+P4ejwHk3+tfvleOpgd/Q11d5yOmU2Hf08vx8TPy+Is+5Hgn3M8t62qmR3tCLP5A7Gpii9iXb/gN91vNeAhrIrOe9JHT48ul+XfR2XmD/86ltLvqK9sL5J8U0MMhbUntaBjoozp+pAdef1N+o8TwRb+jle9V8JHJo1B+uBfV/PLXxRd9wf+JpDS/6jvonnqf1op+nBX9DL/aohWMivejnZucX6E16xR8uaC+C6qtWUZ6D6pPWTgl8Q19e97OZhwPyE/S8tHlUXH9+lYduO4DrV/qI+iSovur5CKCfPX1Bf9XT1zMC/UH6hvLm6fvpIbzbf4lfBp4Xk4ei9BP3X+Stz9PCvqGfr/IzAtovO1+vzx9xc35FnkdCexrV/xn5jDje6DeJR0ZB+5j0/I6K/nNW/9DoB7xvVv9nNNT/5bSeF73JD/onYk+Nnv1PsS9jnBb/jT8v+My4IrI39FPi34nxnYuPjH5gfJdf5X8GfP48d++JnvTVVHxmRgY47IA5Btogi4/lC8yEGtoCXnHJjGGHoQiDeTkM6jTHQCCBxbzZMQyCmeoZtFwMBcO8hZN1ZcAluUDYGNDQDycZ5kmTZ2OORleGRq6W6fagDJN8xXhidRcDo2vLu+zK0EjbFfcdrn27Z6jnrj8xZNjWhdd1ZaggfAvhqcrQKYIIp0P2xDBBRVoEJjZ5DtbxRZWeMZARsZhKUC1jKHAe8lA33Bga7JJFVdMxdIoT4+nGPTFQoFWuOOBimCgaxYX2xkDYdGnuPEyOXbuCGZPBpDLVehoDaY0anHhPdPfr5d08M4D2rslJ60TtbfGYGpSJEV2tZ4D4zEAuQLt5B2QYCnLtGOaNaBBDc2HdjiGdsP2PMhTnOGwY6lH8XyBk9U68Cept/TwuPyh8xtDdkki3Wuznl0TomwV/wYkGhTvG0OUdBto4Cxd1WweaLIsXVS8NTLH1dASnjMn9MYbhjCL5iBaS6kt3BEEtJm3OipJXb0GphM1m2CnMsKg0ZmUg58QY9Ig2BE77lVh7YqBI2wJT7y/hOwxn4ypilRbKVufCZQoeglNkpjxBvIdPzxW00xb9Cl5sDISvDe+cZA6AsjuiGc+DMajWyPzSDmO2gANzaFWTaMZA4j1c1seCJkIVLWgWGMMYKA1iUbCa3YB+q4W1YhQtEKXEgP23IhkDM0vTQXm2SPJmpvM1bBsyfOn1mV7PwwIzYFuX5Eh0n9GVNmFW+COhc2LnKwoeEBFfNAYBzO0M4rY29flMLZAyng6iMMWDDK6GxHRhAUW2zIeAdO38MvcMQz0BMwCYRXeG3UwMwarGIKGlMSR6h6GJF7N6BOw94pGLIaEiW/FIVwbSS8uzkCVFFu+pnrF5H4m2dWrw2jikmQ4TaFxPsvwvwecbGpQV8QhDRd26XMLX89Ayn7ipkaI515G+w1TMrgUWjanuT50YgN8wMKp5w9BOP/NHGSrjiJ6BgeUbBs60+e9gsSOlDhaD5M7MKPJ5EN+7XIHaW4ZXNbOylyx8glVaDE/xwzqiUj9XEaZYWkPeoWACYV71KhdDRujxEV5cDPHovCTR3iUgxj99EeO10e8Y5MTlwdLaXdq/I8g8HWyXG/pLy4q+bmuu/A4XMnkxFN6lpt8hZ0xdrXikKwMaFFeMmbkY7QH4XgyRz8Plf10MgQ27qzdZFXm0S0UDvzTOksV3Pp9UwKwcDOmlrGc6cQnJdPF04jjOGEQvpYLB68qYuCoq3NakbuhK/NGHc3UPq3KCnXU50w80/x2DhGVpo73jTenb5i9Ux0BBkzGIrxHn7i/kpAxU/WAMEoBvyglXmBeVAbV3UDc0dpaloNDjqgEnVRk0h2IMpFvH1PRa5BojY0iypIJFjhZ59qkMVEVgDBLHxczv0LVOMCaMgYyhukJiwvmMISVlQJiiuVLcwOhPUyvKwLrRJ63NJhWwUA2pnTgaoyCi6wf6SqPqejpmmoerDehYOjGKJkOuZoh39IJENRbrq1XjQY8oUXK1ZPy9kmbhuDRyRD0EBUuhFxAhtYJYutWnphw45927ZnMZCVwYgTgXeCR7drWpDEJHdSI5oG9TYcCEzlFzKfvEpShFezEiymdLrhcAU6bN1c6xc1eHWvCICHr1tf2nyrunrwpURSwFtYBU3KiAYJ7Fo2LIuDTGosuRhb7R+wZNMTBMsCpdHT1newV84daWR+XtEz2VQncNNTfPv0KsH6Rv6hds3red/uETPZWGVZXnDb3rBeAw1uiLo6f8f1bAb0vvvy+tPykeErhUP6rXFLBoo1z+yBM9fV+XbbqKQ2/ps7MX4fzFPf1Q9J5THLlrABHQ58sOKN8839UKBkxXLMBA5RlbB4oiOZv9zArDB/R/8lVp/ERP63GFeQExx4UVuPNL++Nqy/m8GH3S70XAb3JxScB6BaMXDz0gKOt79wKijau2U59Ppe6pq/9zFe+/oxesMSLOvVpbi9LT/lTX64eAr++lipiSebQiP/kbtD9ZiwginpdVTajrIX8yORQmIsyz3C+lJzwvOf+cWwce4vLwJ/F7BY1HEiKYyfkniVthXG9s4l7gK1x88s/h+0aXZswY/64SWek1417p5ukJioxF7UXm3uri10/+fHS9gdvnS9FA5l5p3xuI+ic6e5Qxflz0+r4UTy36pvu/eV/d/w7+w6LX9WNdeTnDgyd6qrAu6j9v6afuz2Y9gtFu3tf13m72s6q/ndF+3dJzjXtw8rl5X93PjTxPfd/deVR525zH8SfPe3fr4dkUmjHi2RR355HX788jnxf/fJbn5uR/M7vDySfrn+7kn9fz5+irxoMZ46PY1F/NiOdEF49k9N/MPgpSnxCvMPsrybfEs1Cu+t4HPdnTx6SCJ3+D/QfJHkZE9Zc7q/gVJeqSiy8ixi9rsoHDr2j9Sb/Xxh92vXKMX/nmlMi9Ka4BIbB/WH38RfphzbLQ+AvjFzc7aBMfdZWHgP5kcmX4jM+s9IOun87vI73xFF9v4keHDxBe4c5L4K6a4ON3io+y66wLOMplxe/u+Rt8QL8X4fnZ9X4GxNuzy/0H1CcLP1F6SvplVx8RsLXa6IfKM53HhS85elr/0HxTOJO9b/ExxSto/SVo7z/vT3G9/7z/Ru+/L+xPSZp/YXlY+KfuJ5U73uGrJJ93+C3Vm93hw9Q6f4c/I/0Nvk350IWfO33CeL7D5zf0Tv4Tfd+b/ALpn5W/cOuhUUbB45PkX9Ub/JCqm1Z+R9dDeEjNikcxPl/drJtN/siVZ23yU/1Mv/2YP1CH2hfGA5vDixiva0n1G4+eWvlN9X/I/1/5U83Pkr5tLl+WcP3dlQOx/9xdG3lCPKRXj//QeewuH8cV6asPwMWPsJ8jqD4pXBPj+jN4NM5q9dF6BizSceeLR8UY/VB6yv+uPh+dzUjnfTh8oOF5vKtXIX246mGkkwPzEaveRhpqeD+b5t8H5l9WvZC0l6G/sQqSpDOLe8W67k9kA7BqqhwDIUaraksqCBiiH65nb41n5EIyjQm5unq4oNwYqGF0uChj4RhUuulg+li5XcfN4ImNC+9dYcOCPoghaoV45KEI0/VDx7ErrNTc08BirFV+Kn9hIvqyClx9cSjV3PoSWo4fpsMjNgnSVdUrBi1iBDFdxjZF/g5JQ44NxjNdzdEGpJpuPkDKqPVmUquZNnX0brDDsiN0gLLiEquwj3apuKGWPIV3ug7ThVVwWbyo+qVb6S9UnZO7xoZwab+C6xHRktk0W73wBO5nkIpYY8Bmy+bwWgZs1ywXAfAL90529w4VSzCmawLPDWOQ6XL0qxGFZKm778ADquZwEyt5AuVqhXQjKFGRuTqGwoWEc+p5KFxpudqmpEepsMlyXYGFe+vnVGyp8Fy6NexC+qzYWzIGsQ+ruYw76iQ9tW9fE/9q0yAXQ9CKrd20yxsObvO74+BOwjsObla849j2Q+rYzm3HpTC0wP6D+xgtbf+CTNbMOO1kCdSrvmybbnY3u7w1LMCfUwOONrhhzPfWzt0pkhK31YHMH0672SP3uzjVsbqo+S/I3LOeMA21tJk0dm8+3HB9B4Xb6oYWdvTKfpxT4asWnr6DG/PeN23XrhZ/zT9hQydmqPOg32XdZUmbZqum5WuD6/vMpZEgYkT2H1wBzNh0yfnpltx3NO/GbZJ69W11FmWjW+YmtqyomZutBFUa3JI23NyCMTmodjjy5EJRYxB1b9uAyImrvJ2cWh5ONGZCp2m42oQ1hJLeobh5jIzujay+6CMOeQenaTtXQf9huAh2xSHMoFP6Cp6HETSjsmZKwjv06Ya98X0txiCNrGuoEo2eGgpuzIZ2enUhJWXItCSX9t6PnkqOgaaH9urmYvIlF91Vujwa4t9B1zr2tfNUMlcrbiaGemvNyPqZkrik6GRpYLqkO/h6GWLqv3Ie2XImNg1eSRkoTGkuw7tcLmJwJa2TJ1S07kZPTQyEmpsq8HBM7xncDSKLgW5McZMGn/z3ew43zHDL4fHBDYcfybjlcOUmWw43WHLLUV2J044jq5P/CF3uGVzWffP9qh/QzHcs1XAjISSDZWoiYoUuPAhVPYiJnlxxQ7EmO5fF3Ru2G7Wab2aCkidXXHXaZlxsnjcvjfUnw03G45G3ublpyAMzrmswsNP65OSveSJJGbBnyc33n9wUnlzr/zJE1IXRnQfBbeTrCqWkDCRL/o6XycNnkvfkGlqulUh3PgouKWiUbAzkmEV3T9lmeGV0uOUDgr5naG7uNQ/2ilVhyFl29cQ3/i4XCKt48+U5MTvnMiMuFZNzLjPWDBqDhhGJmzKiFtU8psu8AdfcjXqbMXQat685K7Ci4dQYJ6mGG+fM8HS/uRGB1GRzUycmCqrrQh+D7aemmwZfmehm4w6+kc4lmx559HuV6mZcNvRBnTM2NlP7tSpoQRp4Q4lUuY2CJsFldkfGpI678Wjw9NagemjNsAX58WNMucw5qHx2zgsENwuTw5ig+9kHKi2HpW9v6FH63Q1ASl//5PN3Nxgp/e6GJJmgtL2BSTTu9oYniYS3N0gJjNkGlqG5rubW8GKPoK7vI4J7J8/yfMYwg0saJCxDCzo1owVuE1SntE6+KkUNXt1cgasVCrUhbOb0T+UR2K6wpDLwF7VrtzJKnbSAqPJUM1fCUQZfSKJxyrrhj5xRdcALl1c45GjdUIj0EiwWdmiyW39AdM3dN/GYQ/GGXqswOwIoRfXPuoESb9AUz3vdcIn+gI5Y3N2gKfpk3dCJN4ZK6JC5jLfojYw5bPwfsY/bG0ylq3/NTeAbQ+X5jIW6KUKrLBRvIBO4ZHPleFEw93Hn6zv6qfTY9uGqkLkt3nWxpt2NrQIVJ064Vk0iLA2M9HLeVxsZ+tsCum3aVqr6e3Gi/LibJVZlIZWxa1Vx5Ns03BSkx5yCN/Sy/5EvyepumCJPX3QlTo84+g292PfIY96Gm+LB/rzreo2clHVz2NcFcnjjnXZdco3wdFNFNkWX7sZxbiuJQRU6pwBicMAi3+MW3JWSPDYgqgPB/mp0g11Z/mNSJLXz/iQ98AyWRRfQcjVnzOogcsIwZh17WRkDcgamMgTkxioUHgPghjQX9MdWsbc4iIhLR6ewNmM8usLSXD5j9LI/Gcf8GL04oInHMDiFlXiMhGu7Sbz/XeHfxGMtHHKadhc3igO9ef7QgHODILqLIblMN7o8WUK8yOgFoMmoPxd9Unr6XkMBuIytA3fPx9tCh2ayM5+XLb394/efvn36/sMvn3/99Y9vX7/88+Pz///y5evHf3z98q/ffr5+9cenn37/aD/9Fw==);lineShape=1;" vertex="1" parent="1">
                    <mxGeometry x="218.50024142276857" y="6.638577403506247" width="263.999561771245" height="369.8613325548987" as="geometry"/>
                </mxCell>
                <mxCell id="40" value="" style="shape=stencil(lZbdUttADIWfxrdnpNX+XlN4D2YIjYc0YUKg5e3R1mOIlkSd3vnv88pHR8c7yc3L9v55MwV6OR0PT5vf88NpO8mPKYR5v90c55MeTXI7yc3j4bj5eTy87h+W8+f7/mQ/+nV462/4s3CNUEKnAr0vV2JCan+v3C3Abt6fAxmlGCAJWnWAhsoGyIKaXSCJAUoEeyUltGyAqis4QG2IFmiMFh1AVbIltYLE14FCyFYlJgLRdSITJNolGtiRKRGq7ZzqQE4jooBtI2oFO4BUkAVK84EMsrrmBhIHKGMjUkV1VIphXCGqW5zO6W1pFggITklaQK4G0CKzs0KuaMkCGSE53lARrZlU6OB8dG+TXUFbGfyBoGFG6V8zykPjCLFcB87c/OkNWoPh8hI6MBbQofJa3UdysGtbX3FZJh36YUg1GJySeqzYkr6i53KrBeXbjFYnBjQa6wBofHozmhCHoVZZHTN1QP4HkDima09Dx0whrm7+BBKyE0yc1rQ+i43ofHRBtW4tDHHaEMYwzrym7cXn1ar2AxKvKXLteWuLSODg1ZNsYgRfUc0TWz831xQcR4GYkZweBxmBBHEmRz0x/Bm0AY6garpBofHfpgdfO47HebdbNizn98cdil5adjdy+wE=);lineShape=1;" vertex="1" parent="1">
                    <mxGeometry x="323.8631549603631" y="281.8554605684617" width="2.51462274023811" height="2.5223367616044925" as="geometry"/>
                </mxCell>
            </root>
        </mxGraphModel>
    </diagram>
</mxfile>